<svg width="1440" height="289" viewBox="0 0 1440 289" fill="none" xmlns="http://www.w3.org/2000/svg">
<rect width="1440" height="288" fill="url(#paint0_linear_55_11801)"/>
<path d="M0 0H1440V288C1440 288 1229.81 209.917 1089.5 209C944.997 208.055 872.421 283.028 728 288C584.421 292.943 510.488 254.599 367 247.5C292.891 243.833 244.847 267.215 171.5 256C101.254 245.26 -2.5 202.75 -2.5 202.75L0 0Z" fill="url(#paint1_linear_55_11801)"/>
<path d="M83.744 116V77.26H109.484V83.5H90.816V93.432H108.444V99.672H90.816V109.76H109.484V116H83.744ZM111.05 116L120.93 101.804L110.998 87.712H119.006L126.754 99.152H123.166L130.914 87.712H138.87L128.99 101.804L138.818 116H130.862L123.218 104.612H126.702L119.058 116H111.05ZM142.094 126.4V87.712H148.49V93.328L147.866 91.924C148.837 90.3987 150.154 89.22 151.818 88.388C153.482 87.5213 155.406 87.088 157.59 87.088C160.259 87.088 162.669 87.7467 164.818 89.064C166.967 90.3813 168.666 92.1493 169.914 94.368C171.197 96.5867 171.838 99.0827 171.838 101.856C171.838 104.595 171.214 107.091 169.966 109.344C168.718 111.597 167.019 113.383 164.87 114.7C162.721 115.983 160.277 116.624 157.538 116.624C155.493 116.624 153.603 116.225 151.87 115.428C150.171 114.596 148.819 113.417 147.814 111.892L148.906 110.54V126.4H142.094ZM156.758 110.384C158.318 110.384 159.705 110.02 160.918 109.292C162.131 108.564 163.067 107.559 163.726 106.276C164.419 104.993 164.766 103.52 164.766 101.856C164.766 100.192 164.419 98.736 163.726 97.488C163.067 96.2053 162.131 95.2 160.918 94.472C159.705 93.7093 158.318 93.328 156.758 93.328C155.267 93.328 153.915 93.692 152.702 94.42C151.523 95.148 150.587 96.1707 149.894 97.488C149.235 98.7707 148.906 100.227 148.906 101.856C148.906 103.52 149.235 104.993 149.894 106.276C150.587 107.559 151.523 108.564 152.702 109.292C153.915 110.02 155.267 110.384 156.758 110.384ZM176.531 116V76.636H183.343V116H176.531ZM202.965 116.624C200.192 116.624 197.661 115.983 195.373 114.7C193.12 113.417 191.317 111.667 189.965 109.448C188.648 107.229 187.989 104.699 187.989 101.856C187.989 99.0133 188.648 96.4827 189.965 94.264C191.317 92.0453 193.12 90.2947 195.373 89.012C197.626 87.7293 200.157 87.088 202.965 87.088C205.738 87.088 208.252 87.7293 210.505 89.012C212.758 90.2947 214.544 92.0453 215.861 94.264C217.213 96.448 217.889 98.9787 217.889 101.856C217.889 104.699 217.213 107.229 215.861 109.448C214.509 111.667 212.706 113.417 210.453 114.7C208.2 115.983 205.704 116.624 202.965 116.624ZM202.965 110.384C204.49 110.384 205.825 110.02 206.969 109.292C208.148 108.564 209.066 107.559 209.725 106.276C210.418 104.959 210.765 103.485 210.765 101.856C210.765 100.192 210.418 98.736 209.725 97.488C209.066 96.2053 208.148 95.2 206.969 94.472C205.825 93.7093 204.49 93.328 202.965 93.328C201.405 93.328 200.036 93.7093 198.857 94.472C197.678 95.2 196.742 96.2053 196.049 97.488C195.39 98.736 195.061 100.192 195.061 101.856C195.061 103.485 195.39 104.959 196.049 106.276C196.742 107.559 197.678 108.564 198.857 109.292C200.036 110.02 201.405 110.384 202.965 110.384ZM222.555 116V87.712H228.951V94.004L228.431 93.068C229.089 90.9533 230.112 89.48 231.499 88.648C232.92 87.816 234.619 87.4 236.595 87.4H238.259V93.432H235.815C233.873 93.432 232.313 94.0387 231.135 95.252C229.956 96.4307 229.367 98.0947 229.367 100.244V116H222.555ZM254.92 116.624C252.008 116.624 249.46 115.965 247.276 114.648C245.092 113.331 243.393 111.545 242.18 109.292C240.967 107.039 240.36 104.543 240.36 101.804C240.36 98.9613 240.967 96.448 242.18 94.264C243.428 92.0453 245.109 90.2947 247.224 89.012C249.373 87.7293 251.765 87.088 254.4 87.088C256.619 87.088 258.56 87.452 260.224 88.18C261.923 88.908 263.361 89.9133 264.54 91.196C265.719 92.4787 266.62 93.952 267.244 95.616C267.868 97.2453 268.18 99.0133 268.18 100.92C268.18 101.405 268.145 101.908 268.076 102.428C268.041 102.948 267.955 103.399 267.816 103.78H245.976V98.58H263.968L260.744 101.024C261.056 99.4293 260.969 98.008 260.484 96.76C260.033 95.512 259.271 94.524 258.196 93.796C257.156 93.068 255.891 92.704 254.4 92.704C252.979 92.704 251.713 93.068 250.604 93.796C249.495 94.4893 248.645 95.5293 248.056 96.916C247.501 98.268 247.293 99.9147 247.432 101.856C247.293 103.589 247.519 105.132 248.108 106.484C248.732 107.801 249.633 108.824 250.812 109.552C252.025 110.28 253.412 110.644 254.972 110.644C256.532 110.644 257.849 110.315 258.924 109.656C260.033 108.997 260.9 108.113 261.524 107.004L267.036 109.708C266.481 111.06 265.615 112.256 264.436 113.296C263.257 114.336 261.853 115.151 260.224 115.74C258.629 116.329 256.861 116.624 254.92 116.624ZM289.022 116V83.5H278.986V77.26H306.026V83.5H296.146V116H289.022ZM319.445 116.624C316.672 116.624 314.141 115.983 311.853 114.7C309.6 113.417 307.797 111.667 306.445 109.448C305.128 107.229 304.469 104.699 304.469 101.856C304.469 99.0133 305.128 96.4827 306.445 94.264C307.797 92.0453 309.6 90.2947 311.853 89.012C314.107 87.7293 316.637 87.088 319.445 87.088C322.219 87.088 324.732 87.7293 326.985 89.012C329.239 90.2947 331.024 92.0453 332.341 94.264C333.693 96.448 334.369 98.9787 334.369 101.856C334.369 104.699 333.693 107.229 332.341 109.448C330.989 111.667 329.187 113.417 326.933 114.7C324.68 115.983 322.184 116.624 319.445 116.624ZM319.445 110.384C320.971 110.384 322.305 110.02 323.449 109.292C324.628 108.564 325.547 107.559 326.205 106.276C326.899 104.959 327.245 103.485 327.245 101.856C327.245 100.192 326.899 98.736 326.205 97.488C325.547 96.2053 324.628 95.2 323.449 94.472C322.305 93.7093 320.971 93.328 319.445 93.328C317.885 93.328 316.516 93.7093 315.337 94.472C314.159 95.2 313.223 96.2053 312.529 97.488C311.871 98.736 311.541 100.192 311.541 101.856C311.541 103.485 311.871 104.959 312.529 106.276C313.223 107.559 314.159 108.564 315.337 109.292C316.516 110.02 317.885 110.384 319.445 110.384ZM339.035 126.4V87.712H345.431V93.328L344.807 91.924C345.778 90.3987 347.095 89.22 348.759 88.388C350.423 87.5213 352.347 87.088 354.531 87.088C357.201 87.088 359.61 87.7467 361.759 89.064C363.909 90.3813 365.607 92.1493 366.855 94.368C368.138 96.5867 368.779 99.0827 368.779 101.856C368.779 104.595 368.155 107.091 366.907 109.344C365.659 111.597 363.961 113.383 361.811 114.7C359.662 115.983 357.218 116.624 354.479 116.624C352.434 116.624 350.545 116.225 348.811 115.428C347.113 114.596 345.761 113.417 344.755 111.892L345.847 110.54V126.4H339.035ZM353.699 110.384C355.259 110.384 356.646 110.02 357.859 109.292C359.073 108.564 360.009 107.559 360.667 106.276C361.361 104.993 361.707 103.52 361.707 101.856C361.707 100.192 361.361 98.736 360.667 97.488C360.009 96.2053 359.073 95.2 357.859 94.472C356.646 93.7093 355.259 93.328 353.699 93.328C352.209 93.328 350.857 93.692 349.643 94.42C348.465 95.148 347.529 96.1707 346.835 97.488C346.177 98.7707 345.847 100.227 345.847 101.856C345.847 103.52 346.177 104.993 346.835 106.276C347.529 107.559 348.465 108.564 349.643 109.292C350.857 110.02 352.209 110.384 353.699 110.384ZM246.662 178V139.26H259.298C263.389 139.26 266.942 140.092 269.958 141.756C273.009 143.385 275.366 145.656 277.03 148.568C278.694 151.445 279.526 154.791 279.526 158.604C279.526 162.383 278.694 165.745 277.03 168.692C275.366 171.604 273.009 173.892 269.958 175.556C266.942 177.185 263.389 178 259.298 178H246.662ZM253.734 171.76H259.454C262.089 171.76 264.359 171.223 266.266 170.148C268.207 169.039 269.715 167.513 270.79 165.572C271.865 163.596 272.402 161.273 272.402 158.604C272.402 155.9 271.865 153.577 270.79 151.636C269.715 149.695 268.207 148.187 266.266 147.112C264.359 146.037 262.089 145.5 259.454 145.5H253.734V171.76ZM297.498 178.624C294.586 178.624 292.038 177.965 289.854 176.648C287.67 175.331 285.971 173.545 284.758 171.292C283.545 169.039 282.938 166.543 282.938 163.804C282.938 160.961 283.545 158.448 284.758 156.264C286.006 154.045 287.687 152.295 289.802 151.012C291.951 149.729 294.343 149.088 296.978 149.088C299.197 149.088 301.138 149.452 302.802 150.18C304.501 150.908 305.939 151.913 307.118 153.196C308.297 154.479 309.198 155.952 309.822 157.616C310.446 159.245 310.758 161.013 310.758 162.92C310.758 163.405 310.723 163.908 310.654 164.428C310.619 164.948 310.533 165.399 310.394 165.78H288.554V160.58H306.546L303.322 163.024C303.634 161.429 303.547 160.008 303.062 158.76C302.611 157.512 301.849 156.524 300.774 155.796C299.734 155.068 298.469 154.704 296.978 154.704C295.557 154.704 294.291 155.068 293.182 155.796C292.073 156.489 291.223 157.529 290.634 158.916C290.079 160.268 289.871 161.915 290.01 163.856C289.871 165.589 290.097 167.132 290.686 168.484C291.31 169.801 292.211 170.824 293.39 171.552C294.603 172.28 295.99 172.644 297.55 172.644C299.11 172.644 300.427 172.315 301.502 171.656C302.611 170.997 303.478 170.113 304.102 169.004L309.614 171.708C309.059 173.06 308.193 174.256 307.014 175.296C305.835 176.336 304.431 177.151 302.802 177.74C301.207 178.329 299.439 178.624 297.498 178.624ZM326.186 178.624C323.17 178.624 320.535 177.913 318.282 176.492C316.063 175.036 314.538 173.077 313.706 170.616L318.802 168.172C319.53 169.767 320.535 171.015 321.818 171.916C323.135 172.817 324.591 173.268 326.186 173.268C327.434 173.268 328.422 172.991 329.15 172.436C329.878 171.881 330.242 171.153 330.242 170.252C330.242 169.697 330.086 169.247 329.774 168.9C329.497 168.519 329.098 168.207 328.578 167.964C328.093 167.687 327.555 167.461 326.966 167.288L322.338 165.988C319.946 165.295 318.126 164.237 316.878 162.816C315.665 161.395 315.058 159.713 315.058 157.772C315.058 156.039 315.491 154.531 316.358 153.248C317.259 151.931 318.49 150.908 320.05 150.18C321.645 149.452 323.465 149.088 325.51 149.088C328.179 149.088 330.537 149.729 332.582 151.012C334.627 152.295 336.083 154.097 336.95 156.42L331.75 158.864C331.265 157.581 330.45 156.559 329.306 155.796C328.162 155.033 326.879 154.652 325.458 154.652C324.314 154.652 323.413 154.912 322.754 155.432C322.095 155.952 321.766 156.628 321.766 157.46C321.766 157.98 321.905 158.431 322.182 158.812C322.459 159.193 322.841 159.505 323.326 159.748C323.846 159.991 324.435 160.216 325.094 160.424L329.618 161.776C331.941 162.469 333.726 163.509 334.974 164.896C336.257 166.283 336.898 167.981 336.898 169.992C336.898 171.691 336.447 173.199 335.546 174.516C334.645 175.799 333.397 176.804 331.802 177.532C330.207 178.26 328.335 178.624 326.186 178.624ZM341.633 178V149.712H348.445V178H341.633ZM341.633 146.54V139.26H348.445V146.54H341.633ZM367.963 189.44C365.848 189.44 363.889 189.093 362.087 188.4C360.284 187.707 358.724 186.736 357.407 185.488C356.124 184.275 355.188 182.836 354.599 181.172L360.943 178.78C361.359 180.097 362.173 181.155 363.387 181.952C364.635 182.784 366.16 183.2 367.963 183.2C369.349 183.2 370.563 182.94 371.603 182.42C372.677 181.9 373.509 181.137 374.099 180.132C374.688 179.161 374.983 177.983 374.983 176.596V170.148L376.283 171.708C375.312 173.407 374.012 174.689 372.383 175.556C370.753 176.423 368.899 176.856 366.819 176.856C364.184 176.856 361.827 176.249 359.747 175.036C357.667 173.823 356.037 172.159 354.859 170.044C353.68 167.929 353.091 165.555 353.091 162.92C353.091 160.251 353.68 157.876 354.859 155.796C356.037 153.716 357.649 152.087 359.695 150.908C361.74 149.695 364.063 149.088 366.663 149.088C368.777 149.088 370.632 149.539 372.227 150.44C373.856 151.307 375.208 152.572 376.283 154.236L375.347 155.952V149.712H381.795V176.596C381.795 179.057 381.188 181.259 379.975 183.2C378.796 185.141 377.167 186.667 375.087 187.776C373.041 188.885 370.667 189.44 367.963 189.44ZM367.651 170.564C369.107 170.564 370.372 170.252 371.447 169.628C372.556 168.969 373.423 168.068 374.047 166.924C374.671 165.78 374.983 164.463 374.983 162.972C374.983 161.516 374.653 160.216 373.995 159.072C373.371 157.893 372.504 156.975 371.395 156.316C370.32 155.657 369.072 155.328 367.651 155.328C366.229 155.328 364.947 155.657 363.803 156.316C362.659 156.975 361.757 157.893 361.099 159.072C360.475 160.216 360.163 161.516 360.163 162.972C360.163 164.428 360.475 165.728 361.099 166.872C361.757 168.016 362.641 168.917 363.751 169.576C364.895 170.235 366.195 170.564 367.651 170.564ZM387.656 178V149.712H394.052V155.276L393.532 154.288C394.191 152.589 395.266 151.307 396.756 150.44C398.282 149.539 400.05 149.088 402.06 149.088C404.14 149.088 405.978 149.539 407.572 150.44C409.202 151.341 410.467 152.607 411.368 154.236C412.27 155.831 412.72 157.685 412.72 159.8V178H405.908V161.412C405.908 160.164 405.666 159.089 405.18 158.188C404.695 157.287 404.019 156.593 403.152 156.108C402.32 155.588 401.332 155.328 400.188 155.328C399.079 155.328 398.091 155.588 397.224 156.108C396.358 156.593 395.682 157.287 395.196 158.188C394.711 159.089 394.468 160.164 394.468 161.412V178H387.656ZM424.123 178L437.487 139.26H446.639L460.003 178H452.307L449.551 169.68H434.575L431.767 178H424.123ZM436.603 163.44H447.523L441.075 144.148H443.051L436.603 163.44ZM474.006 178.624C470.99 178.624 468.356 177.913 466.102 176.492C463.884 175.036 462.358 173.077 461.526 170.616L466.622 168.172C467.35 169.767 468.356 171.015 469.638 171.916C470.956 172.817 472.412 173.268 474.006 173.268C475.254 173.268 476.242 172.991 476.97 172.436C477.698 171.881 478.062 171.153 478.062 170.252C478.062 169.697 477.906 169.247 477.594 168.9C477.317 168.519 476.918 168.207 476.398 167.964C475.913 167.687 475.376 167.461 474.786 167.288L470.158 165.988C467.766 165.295 465.946 164.237 464.698 162.816C463.485 161.395 462.878 159.713 462.878 157.772C462.878 156.039 463.312 154.531 464.178 153.248C465.08 151.931 466.31 150.908 467.87 150.18C469.465 149.452 471.285 149.088 473.33 149.088C476 149.088 478.357 149.729 480.402 151.012C482.448 152.295 483.904 154.097 484.77 156.42L479.57 158.864C479.085 157.581 478.27 156.559 477.126 155.796C475.982 155.033 474.7 154.652 473.278 154.652C472.134 154.652 471.233 154.912 470.574 155.432C469.916 155.952 469.586 156.628 469.586 157.46C469.586 157.98 469.725 158.431 470.002 158.812C470.28 159.193 470.661 159.505 471.146 159.748C471.666 159.991 472.256 160.216 472.914 160.424L477.438 161.776C479.761 162.469 481.546 163.509 482.794 164.896C484.077 166.283 484.718 167.981 484.718 169.992C484.718 171.691 484.268 173.199 483.366 174.516C482.465 175.799 481.217 176.804 479.622 177.532C478.028 178.26 476.156 178.624 474.006 178.624ZM500.217 178.624C497.201 178.624 494.567 177.913 492.313 176.492C490.095 175.036 488.569 173.077 487.737 170.616L492.833 168.172C493.561 169.767 494.567 171.015 495.849 171.916C497.167 172.817 498.623 173.268 500.217 173.268C501.465 173.268 502.453 172.991 503.181 172.436C503.909 171.881 504.273 171.153 504.273 170.252C504.273 169.697 504.117 169.247 503.805 168.9C503.528 168.519 503.129 168.207 502.609 167.964C502.124 167.687 501.587 167.461 500.997 167.288L496.369 165.988C493.977 165.295 492.157 164.237 490.909 162.816C489.696 161.395 489.089 159.713 489.089 157.772C489.089 156.039 489.523 154.531 490.389 153.248C491.291 151.931 492.521 150.908 494.081 150.18C495.676 149.452 497.496 149.088 499.541 149.088C502.211 149.088 504.568 149.729 506.613 151.012C508.659 152.295 510.115 154.097 510.981 156.42L505.781 158.864C505.296 157.581 504.481 156.559 503.337 155.796C502.193 155.033 500.911 154.652 499.489 154.652C498.345 154.652 497.444 154.912 496.785 155.432C496.127 155.952 495.797 156.628 495.797 157.46C495.797 157.98 495.936 158.431 496.213 158.812C496.491 159.193 496.872 159.505 497.357 159.748C497.877 159.991 498.467 160.216 499.125 160.424L503.649 161.776C505.972 162.469 507.757 163.509 509.005 164.896C510.288 166.283 510.929 167.981 510.929 169.992C510.929 171.691 510.479 173.199 509.577 174.516C508.676 175.799 507.428 176.804 505.833 177.532C504.239 178.26 502.367 178.624 500.217 178.624ZM529.08 178.624C526.168 178.624 523.62 177.965 521.436 176.648C519.252 175.331 517.554 173.545 516.34 171.292C515.127 169.039 514.52 166.543 514.52 163.804C514.52 160.961 515.127 158.448 516.34 156.264C517.588 154.045 519.27 152.295 521.384 151.012C523.534 149.729 525.926 149.088 528.56 149.088C530.779 149.088 532.72 149.452 534.384 150.18C536.083 150.908 537.522 151.913 538.7 153.196C539.879 154.479 540.78 155.952 541.404 157.616C542.028 159.245 542.34 161.013 542.34 162.92C542.34 163.405 542.306 163.908 542.236 164.428C542.202 164.948 542.115 165.399 541.976 165.78H520.136V160.58H538.128L534.904 163.024C535.216 161.429 535.13 160.008 534.644 158.76C534.194 157.512 533.431 156.524 532.356 155.796C531.316 155.068 530.051 154.704 528.56 154.704C527.139 154.704 525.874 155.068 524.764 155.796C523.655 156.489 522.806 157.529 522.216 158.916C521.662 160.268 521.454 161.915 521.592 163.856C521.454 165.589 521.679 167.132 522.268 168.484C522.892 169.801 523.794 170.824 524.972 171.552C526.186 172.28 527.572 172.644 529.132 172.644C530.692 172.644 532.01 172.315 533.084 171.656C534.194 170.997 535.06 170.113 535.684 169.004L541.196 171.708C540.642 173.06 539.775 174.256 538.596 175.296C537.418 176.336 536.014 177.151 534.384 177.74C532.79 178.329 531.022 178.624 529.08 178.624ZM559.9 178.312C556.711 178.312 554.232 177.445 552.464 175.712C550.731 173.944 549.864 171.465 549.864 168.276V155.796H544.976V149.712H545.496C546.883 149.712 547.957 149.348 548.72 148.62C549.483 147.892 549.864 146.835 549.864 145.448V143.264H556.676V149.712H563.176V155.796H556.676V167.912C556.676 168.848 556.832 169.645 557.144 170.304C557.491 170.963 558.011 171.465 558.704 171.812C559.432 172.159 560.351 172.332 561.46 172.332C561.703 172.332 561.98 172.315 562.292 172.28C562.639 172.245 562.968 172.211 563.28 172.176V178C562.795 178.069 562.24 178.139 561.616 178.208C560.992 178.277 560.42 178.312 559.9 178.312ZM578.749 178.624C575.733 178.624 573.098 177.913 570.845 176.492C568.626 175.036 567.101 173.077 566.269 170.616L571.365 168.172C572.093 169.767 573.098 171.015 574.381 171.916C575.698 172.817 577.154 173.268 578.749 173.268C579.997 173.268 580.985 172.991 581.713 172.436C582.441 171.881 582.805 171.153 582.805 170.252C582.805 169.697 582.649 169.247 582.337 168.9C582.059 168.519 581.661 168.207 581.141 167.964C580.655 167.687 580.118 167.461 579.529 167.288L574.901 165.988C572.509 165.295 570.689 164.237 569.441 162.816C568.227 161.395 567.621 159.713 567.621 157.772C567.621 156.039 568.054 154.531 568.921 153.248C569.822 151.931 571.053 150.908 572.613 150.18C574.207 149.452 576.027 149.088 578.073 149.088C580.742 149.088 583.099 149.729 585.145 151.012C587.19 152.295 588.646 154.097 589.513 156.42L584.313 158.864C583.827 157.581 583.013 156.559 581.869 155.796C580.725 155.033 579.442 154.652 578.021 154.652C576.877 154.652 575.975 154.912 575.317 155.432C574.658 155.952 574.329 156.628 574.329 157.46C574.329 157.98 574.467 158.431 574.745 158.812C575.022 159.193 575.403 159.505 575.889 159.748C576.409 159.991 576.998 160.216 577.657 160.424L582.181 161.776C584.503 162.469 586.289 163.509 587.537 164.896C588.819 166.283 589.461 167.981 589.461 169.992C589.461 171.691 589.01 173.199 588.109 174.516C587.207 175.799 585.959 176.804 584.365 177.532C582.77 178.26 580.898 178.624 578.749 178.624Z" fill="#0D0D15"/>
<path d="M98.668 178.624C95.6867 178.624 93.0347 178 90.712 176.752C88.424 175.504 86.6213 173.788 85.304 171.604C83.9867 169.42 83.328 166.941 83.328 164.168V139.26H90.4V163.804C90.4 165.399 90.7467 166.837 91.44 168.12C92.168 169.403 93.156 170.408 94.404 171.136C95.652 171.829 97.0733 172.176 98.668 172.176C100.297 172.176 101.719 171.829 102.932 171.136C104.18 170.408 105.151 169.403 105.844 168.12C106.572 166.837 106.936 165.399 106.936 163.804V139.26H114.008V164.168C114.008 166.941 113.349 169.42 112.032 171.604C110.715 173.788 108.895 175.504 106.572 176.752C104.284 178 101.649 178.624 98.668 178.624ZM120.568 178V139.26H127.64V178H120.568ZM143.334 178V139.26H150.406V159.436L148.482 158.76L164.966 139.26H173.858L158.414 157.564L158.83 152.572L174.326 178H166.006L155.606 160.944L150.406 167.132V178H143.334ZM177.555 178V149.712H184.367V178H177.555ZM177.555 146.54V139.26H184.367V146.54H177.555ZM203.052 178.312C199.863 178.312 197.384 177.445 195.616 175.712C193.883 173.944 193.016 171.465 193.016 168.276V155.796H188.128V149.712H188.648C190.035 149.712 191.11 149.348 191.872 148.62C192.635 147.892 193.016 146.835 193.016 145.448V143.264H199.828V149.712H206.328V155.796H199.828V167.912C199.828 168.848 199.984 169.645 200.296 170.304C200.643 170.963 201.163 171.465 201.856 171.812C202.584 172.159 203.503 172.332 204.612 172.332C204.855 172.332 205.132 172.315 205.444 172.28C205.791 172.245 206.12 172.211 206.432 172.176V178C205.947 178.069 205.392 178.139 204.768 178.208C204.144 178.277 203.572 178.312 203.052 178.312ZM221.901 178.624C218.885 178.624 216.25 177.913 213.997 176.492C211.778 175.036 210.253 173.077 209.421 170.616L214.517 168.172C215.245 169.767 216.25 171.015 217.533 171.916C218.85 172.817 220.306 173.268 221.901 173.268C223.149 173.268 224.137 172.991 224.865 172.436C225.593 171.881 225.957 171.153 225.957 170.252C225.957 169.697 225.801 169.247 225.489 168.9C225.212 168.519 224.813 168.207 224.293 167.964C223.808 167.687 223.27 167.461 222.681 167.288L218.053 165.988C215.661 165.295 213.841 164.237 212.593 162.816C211.38 161.395 210.773 159.713 210.773 157.772C210.773 156.039 211.206 154.531 212.073 153.248C212.974 151.931 214.205 150.908 215.765 150.18C217.36 149.452 219.18 149.088 221.225 149.088C223.894 149.088 226.252 149.729 228.297 151.012C230.342 152.295 231.798 154.097 232.665 156.42L227.465 158.864C226.98 157.581 226.165 156.559 225.021 155.796C223.877 155.033 222.594 154.652 221.173 154.652C220.029 154.652 219.128 154.912 218.469 155.432C217.81 155.952 217.481 156.628 217.481 157.46C217.481 157.98 217.62 158.431 217.897 158.812C218.174 159.193 218.556 159.505 219.041 159.748C219.561 159.991 220.15 160.216 220.809 160.424L225.333 161.776C227.656 162.469 229.441 163.509 230.689 164.896C231.972 166.283 232.613 167.981 232.613 169.992C232.613 171.691 232.162 173.199 231.261 174.516C230.36 175.799 229.112 176.804 227.517 177.532C225.922 178.26 224.05 178.624 221.901 178.624Z" fill="#0265DC"/>
<defs>
<linearGradient id="paint0_linear_55_11801" x1="717.639" y1="288" x2="717.875" y2="-0.00174467" gradientUnits="userSpaceOnUse">
<stop stop-color="white"/>
<stop offset="1" stop-color="#F0F6FD"/>
</linearGradient>
<linearGradient id="paint1_linear_55_11801" x1="810" y1="3.07653e-06" x2="770.5" y2="408.5" gradientUnits="userSpaceOnUse">
<stop stop-color="white"/>
<stop offset="1" stop-color="#D5DEE5"/>
</linearGradient>
</defs>
</svg>
